<svg width="65" height="66" viewBox="0 0 65 66" fill="none" xmlns="http://www.w3.org/2000/svg">
<path d="M60.5262 49.5432L32.4107 6.10262L4.29298 49.5432L0.345703 49.5409L32.4107 0L64.4757 49.5409L60.5262 49.5432Z" fill="#231F20"/>
<path d="M45.617 49.5432H19.2044L17.3484 49.5409L32.4107 26.271L47.4707 49.5409L45.617 49.5432Z" fill="#231F20"/>
<path d="M7.97285 65.8808L7.28716 63.6524H3.10218L2.4165 65.8808H0.359436L4.01643 54.5579H6.47805L10.135 65.8808H7.97285ZM5.04268 57.1292C4.99756 57.4147 4.93186 57.6966 4.84611 57.9726L3.67816 61.7644H6.71347L5.57066 57.9726C5.4998 57.744 5.42666 57.4469 5.35581 57.1109C5.28496 56.7749 5.24153 56.5532 5.2301 56.4458H5.15696C5.13867 56.5532 5.1021 56.7818 5.04268 57.1292Z" fill="#231F20"/>
<path d="M28.5662 54.5579L25.2064 59.1588L28.6736 65.8808H26.2852L23.8213 60.825L22.0613 62.9987V65.8923H19.922V54.5579H22.0613V60.3451L26.212 54.5579H28.5662Z" fill="#231F20"/>
<path d="M45.7453 55.4493C46.2471 56.0001 46.5568 56.6988 46.6281 57.4405C46.6994 58.1822 46.5284 58.927 46.1407 59.5634C45.8054 60.0724 45.3208 60.4652 44.7534 60.6879L46.911 65.8808H44.6254L42.7397 61.1542H40.5478V65.8808H38.4268V54.5579H43.1763C44.2901 54.5579 45.1465 54.855 45.7453 55.4493ZM40.5524 59.2845H42.8883C43.8696 59.2845 44.3602 58.7878 44.3602 57.7943C44.3715 57.6115 44.3464 57.4283 44.2863 57.2553C44.2263 57.0823 44.1326 56.9229 44.0105 56.7863C43.8687 56.6585 43.7024 56.5607 43.5217 56.499C43.3409 56.4373 43.1496 56.413 42.9591 56.4275H40.5524V59.2845Z" fill="#231F20"/>
<path d="M63.3145 64.9392C62.6426 65.57 61.7009 65.8847 60.4895 65.8831C59.2781 65.8816 58.3395 65.567 57.6736 64.9392C57.0093 64.3114 56.6763 63.3971 56.6748 62.1964V54.5579H58.7593V62.1164C58.7593 62.7518 58.9079 63.2409 59.2164 63.5815C59.3788 63.756 59.5778 63.8923 59.7991 63.9808C60.0203 64.0693 60.2585 64.1078 60.4964 64.0935C60.7371 64.1086 60.9782 64.0706 61.2025 63.9821C61.4269 63.8937 61.629 63.7569 61.7946 63.5815C62.1218 63.1659 62.2845 62.6444 62.2517 62.1164V54.5579H64.3339V62.1964C64.3248 63.391 63.985 64.3053 63.3145 64.9392Z" fill="#231F20"/>
</svg>
